<svg width="482" height="494" viewBox="0 0 482 494" fill="none" xmlns="http://www.w3.org/2000/svg">
<path d="M481.267 225.981C481.267 208.616 467.268 194.463 449.749 194.463H188.501L299.35 83.615C311.59 71.375 311.59 51.408 299.35 38.939L269.592 9.18C257.352 -3.06 237.385 -3.06 224.916 9.18L9.56801 224.527C3.44801 230.647 0.312012 238.68 0.312012 246.789C0.312012 254.821 3.44801 262.931 9.56801 269.051L224.916 484.399C237.156 496.638 257.123 496.638 269.592 484.399L299.35 454.64C311.59 442.4 311.59 422.433 299.35 409.964L188.501 299.498H449.595C466.961 299.498 481.114 285.345 481.114 267.979L481.267 225.981Z" fill="white"/>
</svg>
